<svg width="24" height="24" viewBox="0 0 24 24" fill="none" xmlns="http://www.w3.org/2000/svg">
<path d="M20.5406 16.5844C19.9687 15.6094 19.2937 13.7625 19.2937 10.5V9.83438C19.2937 5.78438 16.0499 2.46563 12.0562 2.4375H11.9999C11.0405 2.4375 10.0906 2.62677 9.20441 2.99449C8.31827 3.36221 7.51338 3.90114 6.83585 4.58041C6.15831 5.25969 5.62145 6.06596 5.25601 6.95304C4.89057 7.84013 4.70373 8.79059 4.7062 9.75V10.5C4.7062 13.7625 4.0312 15.6094 3.45932 16.5844C3.34238 16.785 3.28076 17.0131 3.28076 17.2453C3.28076 17.4775 3.34238 17.7056 3.45932 17.9062C3.57208 18.1074 3.73691 18.2745 3.93651 18.3899C4.13611 18.5054 4.36312 18.565 4.5937 18.5625H8.43745V18.75C8.43745 19.6948 8.81278 20.601 9.48088 21.2691C10.149 21.9372 11.0551 22.3125 11.9999 22.3125C12.9448 22.3125 13.8509 21.9372 14.519 21.2691C15.1871 20.601 15.5624 19.6948 15.5624 18.75V18.5625H19.4062C19.6368 18.565 19.8638 18.5054 20.0634 18.3899C20.263 18.2745 20.4278 18.1074 20.5406 17.9062C20.6575 17.7056 20.7191 17.4775 20.7191 17.2453C20.7191 17.0131 20.6575 16.785 20.5406 16.5844ZM14.4374 18.75C14.4374 19.3965 14.1806 20.0165 13.7235 20.4736C13.2664 20.9307 12.6464 21.1875 11.9999 21.1875C11.3535 21.1875 10.7335 20.9307 10.2764 20.4736C9.81926 20.0165 9.56245 19.3965 9.56245 18.75V18.5625H14.4374V18.75ZM19.5656 17.3438C19.551 17.3732 19.5282 17.3977 19.4999 17.4144C19.4716 17.431 19.439 17.4391 19.4062 17.4375H4.5937C4.56089 17.4391 4.52834 17.431 4.50003 17.4144C4.47172 17.3977 4.44888 17.3732 4.43432 17.3438C4.41787 17.3152 4.4092 17.2829 4.4092 17.25C4.4092 17.2171 4.41787 17.1848 4.43432 17.1562C5.07182 16.05 5.8312 14.0063 5.8312 10.5V9.75C5.82997 8.93868 5.98855 8.13506 6.29789 7.38502C6.60723 6.63498 7.06128 5.95322 7.6341 5.37866C8.20692 4.8041 8.8873 4.34798 9.63639 4.03637C10.3855 3.72475 11.1886 3.56373 11.9999 3.5625H12.0468C15.4218 3.58125 18.1687 6.40313 18.1687 9.83438V10.5C18.1687 14.0063 18.9281 16.05 19.5656 17.1562C19.582 17.1848 19.5907 17.2171 19.5907 17.25C19.5907 17.2829 19.582 17.3152 19.5656 17.3438Z" fill="#536471"/>
</svg>
